PathFileType	4	(X/Y/Z)	Patient5_TMGait_0pt45_1_left_13.trc.trc
DataRate	CameraRate	NumFrames	NumMarkers	Units	OrigDataRate	OrigDataStartFrame	OrigNumFrames
57.142857142857	57.142857142857	4	32	mm	57.142857142857	36	       141
Frame#	Time	R.ASIS			L.ASIS			Chest			R.Shoulder			Neck			L.Shoulder			L.Elbow			L.Wrist			R.Elbow			R.Wrist			L.Thigh.Superior			L.Thigh.Lateral			L.Thigh.Inferior			L.Patella			L.Shank.Superior			L.Shank.Lateral			L.Shank.Inferior			L.Heel			L.Midfoot.Lateral			L.Midfoot.Superior			L.Toe			R.Thigh.Superior			R.Thigh.Lateral			R.Thigh.Inferior			R.Patella			R.Shank.Superior			R.Shank.Lateral			R.Shank.Inferior			R.Heel			R.Midfoot.Lateral			R.Midfoot.Superior			R.Toe			
		X1	Y1	Z1	X2	Y2	Z2	X3	Y3	Z3	X4	Y4	Z4	X5	Y5	Z5	X6	Y6	Z6	X7	Y7	Z7	X8	Y8	Z8	X9	Y9	Z9	X10	Y10	Z10	X11	Y11	Z11	X12	Y12	Z12	X13	Y13	Z13	X14	Y14	Z14	X15	Y15	Z15	X16	Y16	Z16	X17	Y17	Z17	X18	Y18	Z18	X19	Y19	Z19	X20	Y20	Z20	X21	Y21	Z21	X22	Y22	Z22	X23	Y23	Z23	X24	Y24	Z24	X25	Y25	Z25	X26	Y26	Z26	X27	Y27	Z27	X28	Y28	Z28	X29	Y29	Z29	X30	Y30	Z30	X31	Y31	Z31	X32	Y32	Z32	

36	20.792500000000	1040.977393164872	987.643099976620	552.744438632101	1070.367113641965	956.179955395150	315.498353817349	1139.968314625608	1434.836538541399	430.865607937027	1017.031713780322	1507.501350403584	576.417899754677	1022.691548059979	1559.974025858416	388.140839290359	1115.878859349772	1496.522234490017	224.449436063071	1063.571581114391	1177.101727019237	89.964256088237	1166.706199643247	910.381073737130	139.775709594116	922.368657889282	1191.377709484982	716.714819004601	1152.472627372289	1017.317281118429	680.084916988510	1121.965643768495	758.081177258333	301.370335109841	1068.439468331867	674.149455714781	258.217001017085	1146.365675380849	635.346372333197	331.157631996984	1169.384565193433	520.608607190642	340.282364091392	1133.514844680900	407.984755835595	353.612447764345	1082.370617233215	333.279180870548	273.784236926345	1116.804175414782	283.312435376642	361.761334282902	1011.784442822482	49.731430129326	363.331268167735	1101.163998038851	24.580699274027	304.490610615278	1195.439845819522	91.120312364991	351.085095681095	1302.829098382794	53.046809516186	358.690616581431	1031.223418590384	753.699118170210	592.333555570378	931.305470670373	687.035044389145	639.097782182185	1019.386973098814	620.411209536876	589.309043799839	1001.624821586065	518.554953231579	625.808092769821	924.310627439940	425.904882390917	581.598220573710	822.154515642591	395.364199147812	653.026900378826	851.805929763425	305.238209809110	579.010729573907	650.374130250564	144.410414758304	538.103219148347	706.755002732698	81.831848329742	610.401205023151	829.228936733381	104.780923942935	602.021409938412	909.006147986025	40.772123383426	599.263593825386	
37	20.810000000000	1041.301600547443	990.873455497532	549.097373309567	1071.232482598014	957.401916484408	312.536590543815	1139.705182527836	1436.577054899651	427.579263600660	1014.829527740186	1509.547723920497	571.339395521229	1023.124561405093	1561.710313604251	383.146806987310	1118.783675238523	1498.052220973899	221.021133921353	1071.328930379021	1178.384113951335	85.715684196533	1175.927669878160	912.593048760465	137.271508107579	918.508858926076	1193.331983630939	710.437582279955	1149.420524660773	1020.147968792636	675.410362520549	1120.102795994095	757.850416829111	299.254198168722	1065.757304137424	674.517122598559	255.530429432208	1142.879753110384	634.653764932594	328.869213203240	1164.341892711864	519.698917076445	337.865429304797	1127.695042362328	407.677541821209	351.645608380058	1075.793663759564	332.975665622508	272.184563555058	1110.188829806657	283.173357434078	360.349428931123	1004.012108538489	49.786490884413	362.975288780784	1093.406550531681	24.457383351318	304.267686950143	1187.647426824421	91.066397532249	350.818240621798	1295.053703010919	53.046517155901	358.630826616120	1035.707748879784	757.966391262960	592.864558109342	937.704724088255	689.743544079940	639.635654090767	1027.707667202650	624.289849894010	591.427403975544	1011.021830086696	521.521652682727	628.565086828471	931.864035993358	429.107429882122	583.850010130188	828.540785943947	400.720608200866	654.958987481511	855.768837310636	310.361790291479	580.241341849552	650.529027564527	158.340561773653	537.468622408283	703.131894006863	92.189332872356	609.467515743363	826.788009281203	109.570173561145	602.740404373699	903.339877038291	40.477056884388	600.049399803374	
38	20.827500000000	1041.260177802420	993.881432842888	545.359111773939	1071.820701083018	958.396617567939	309.497787827550	1139.191135927841	1438.081760798798	424.245497167070	1012.615452974137	1511.319928485742	566.420384910833	1023.269693249197	1563.220560134939	378.343412917360	1121.072879215409	1499.376101181052	217.649740560108	1078.799681867522	1179.417505785083	81.692104711303	1185.006777744067	914.643959963813	135.038934618531	914.592428304219	1195.093777211886	704.449315567950	1145.978862887429	1022.332250843572	671.145076403812	1117.984358238488	757.542335471838	297.055025481685	1062.760016531018	674.817940952194	253.081442502870	1139.290964092098	633.948859473772	326.538324162564	1159.316324663567	518.821257979317	335.518881850770	1121.939260132460	407.365680100924	349.845371592682	1069.217131990328	332.708530175023	270.745172903291	1103.606493495911	283.021677667456	359.079012672794	996.149338771504	49.858182218095	362.695799104456	1085.548437461209	24.351513363087	304.081579963478	1179.821061230037	90.944406455874	350.584695415546	1287.222761646229	52.879004218857	358.584382155438	1039.895059006385	762.128189480541	593.298856591724	943.973318274451	692.472417884724	640.190258203644	1035.648961176883	628.205426619031	593.223779351015	1020.051725465362	524.605629173717	630.938553175552	939.248888307810	432.474592973751	585.859193397293	834.831918454128	406.165426643308	656.568858546344	859.867817645905	315.599385509376	581.210279389623	651.472121572017	171.888460323247	536.344022902816	700.162011291158	102.670489040335	608.294337502902	824.755535688119	114.702437954621	603.402072790050	898.066143200898	40.343595033346	601.203853178888	
39	20.845000000000	1040.867272472447	996.673821448836	541.507345333360	1072.137338187433	959.172507429052	306.351570136074	1138.460069910449	1439.408856531234	420.864628183014	1010.446836561367	1512.868412281807	561.696400755136	1023.154043584496	1564.557829706030	373.750816104162	1122.719397373522	1500.544533574346	214.314120779362	1085.779311899381	1180.237361942905	77.954658442204	1193.891138275217	916.613881530540	133.013603737345	910.583115576609	1196.697718394871	698.703907739699	1142.132846217822	1023.892104443350	667.294138517423	1115.661235489477	757.117541120973	294.629606476117	1059.404862049121	675.001531526581	250.861693407448	1135.637650856336	633.208557922260	324.071956080128	1154.356359523938	517.990211338023	333.223014641741	1116.282354197459	407.056799828971	348.205074021894	1062.661851625032	332.485658904417	269.483661796054	1097.087089437189	282.873208205647	357.961113151907	988.224268364581	49.934759861530	362.494771932385	1077.615331557453	24.273951935242	303.936421080395	1171.966774065280	90.795597021829	350.381577560501	1279.348335788530	52.605278507381	358.533383963604	1043.682473126504	766.159782033193	593.469897887417	949.923759048475	695.245671761837	640.657129304116	1042.992468656252	632.123400839348	594.599410031105	1028.474434330554	527.804074936933	632.874910359510	946.266752396289	435.929065433668	587.577476282881	840.821892568100	411.549216829021	657.789312412910	864.026366583481	320.762628955607	581.932469618558	653.205099721847	184.343374644680	534.789405437217	698.048752135527	112.746821294557	607.023963215327	823.347879643940	119.908650469014	604.126430942614	893.540268428800	40.490125013190	602.906183290090	
